<?xml version="1.0" encoding="UTF-8" standalone="no"?>
<!-- Created with Inkscape (http://www.inkscape.org/) -->

<svg
   width="37"
   height="37"
   viewBox="0 0 206.09599 206.09599"
   version="1.1"
   id="svg1"
   inkscape:version="1.4.4 (dcaf3e7, 2026-05-05)"
   sodipodi:docname="green_flame_b.svg"
   xmlns:inkscape="http://www.inkscape.org/namespaces/inkscape"
   xmlns:sodipodi="http://sodipodi.sourceforge.net/DTD/sodipodi-0.dtd"
   xmlns="http://www.w3.org/2000/svg"
   xmlns:svg="http://www.w3.org/2000/svg">
  <sodipodi:namedview
     id="namedview1"
     pagecolor="#ffffff"
     bordercolor="#000000"
     borderopacity="0.25"
     inkscape:showpageshadow="2"
     inkscape:pageopacity="0.0"
     inkscape:pagecheckerboard="0"
     inkscape:deskcolor="#d1d1d1"
     inkscape:document-units="px"
     inkscape:zoom="24.59"
     inkscape:cx="8.0113867"
     inkscape:cy="18.442456"
     inkscape:window-width="3440"
     inkscape:window-height="1361"
     inkscape:window-x="-9"
     inkscape:window-y="-9"
     inkscape:window-maximized="1"
     inkscape:current-layer="layer1" />
  <defs
     id="defs1">
    <inkscape:path-effect
       effect="bspline"
       id="path-effect5"
       is_visible="true"
       lpeversion="1.3"
       weight="33.333333"
       steps="2"
       helper_size="0"
       apply_no_weight="true"
       apply_with_weight="true"
       only_selected="false"
       uniform="false" />
    <inkscape:path-effect
       effect="bspline"
       id="path-effect4"
       is_visible="true"
       lpeversion="1.3"
       weight="33.333333"
       steps="2"
       helper_size="0"
       apply_no_weight="true"
       apply_with_weight="true"
       only_selected="false"
       uniform="false" />
    <inkscape:path-effect
       effect="bspline"
       id="path-effect3"
       is_visible="true"
       lpeversion="1.3"
       weight="33.333333"
       steps="2"
       helper_size="0"
       apply_no_weight="true"
       apply_with_weight="true"
       only_selected="false"
       uniform="false" />
    <inkscape:path-effect
       effect="bspline"
       id="path-effect2"
       is_visible="true"
       lpeversion="1.3"
       weight="33.333333"
       steps="2"
       helper_size="0"
       apply_no_weight="true"
       apply_with_weight="true"
       only_selected="false"
       uniform="false" />
  </defs>
  <g
     inkscape:label="Layer 1"
     inkscape:groupmode="layer"
     id="layer1">
    <path
       style="fill:#50c878;fill-opacity:1;stroke:#000000;stroke-width:1.05833"
       d="m 52.351732,294.11001 c 2.01658,-2.45894 -7.888054,-7.96952 -15.116788,-17.85383 -7.228734,-9.88431 -11.781576,-24.14235 -9.289116,-44.23757 2.492461,-20.09523 12.030219,-46.02761 11.660802,-52.91299 -0.369416,-6.88537 -10.646006,5.27627 -18.47152,19.50389 -7.825515,14.22762 -13.1999403,30.52119 -12.5706815,46.99454 0.6292587,16.47334 7.2622025,33.12643 17.5475695,41.74932 10.285367,8.62289 24.223154,9.21558 26.239734,6.75664 z"
       id="path2"
       inkscape:path-effect="#path-effect2"
       inkscape:original-d="M 64.272941,297.16164 C 54.368312,291.65107 44.463678,286.14049 34.559055,280.62992 30.00621,266.37187 25.453368,252.11383 20.900523,237.85578 30.438289,211.92338 39.976047,185.991 49.513813,160.0586 39.237214,172.22025 28.960624,184.38189 18.684025,196.54354 13.309595,212.83713 7.9351697,229.1307 2.5607406,245.42429 c 6.6329466,16.6531 13.2658904,33.30619 19.8988364,49.95928 13.937788,0.59269 27.875575,1.18538 41.813364,1.77807 z"
       sodipodi:nodetypes="cccccccc"
       transform="matrix(1.0738906,0,0,1.4013726,-2.7499553,-215.18945)" />
    <path
       style="fill:#50c878;fill-opacity:1;stroke:#000000;stroke-width:1.05833"
       d="m 156.7039,286.75865 c 1.07652,-7.82424 13.18308,-23.9501 17.86485,-38.94015 4.68177,-14.99004 1.93874,-28.84426 -2.36447,-43.54679 -4.3032,-14.70253 -10.16658,-30.25337 -7.24105,-30.74032 2.92553,-0.48695 14.63996,14.08998 22.71106,28.11872 8.0711,14.02875 12.49885,27.50928 9.86831,42.74759 -2.63053,15.2383 -12.31934,32.23434 -22.14052,40.97107 -9.82118,8.73673 -19.7747,9.21413 -18.69818,1.38988 z"
       id="path3"
       inkscape:path-effect="#path-effect3"
       inkscape:original-d="m 145.67384,295.06029 c 12.10658,-16.12588 24.21314,-32.25174 36.31971,-48.37761 -2.74303,-13.85422 -5.48606,-27.70844 -8.22909,-41.56266 -5.86338,-15.55084 -11.72676,-31.10168 -17.59014,-46.65252 11.71444,14.57694 23.42887,29.15387 35.14332,43.73081 4.42775,13.48055 8.8555,26.96108 13.28325,40.44163 -9.68882,16.99606 -19.37763,33.9921 -29.06645,50.98817 -9.95354,0.47739 -19.90706,0.95479 -29.8606,1.43218 z"
       sodipodi:nodetypes="cccccccc"
       transform="matrix(1.0738906,0,0,1.4013726,-13.622984,-211.98871)" />
    <path
       style="fill:#50c878;fill-opacity:1;stroke:#000000;stroke-width:1.05833"
       d="m 91.274599,293.31035 c 1.692025,-3.63577 -9.079737,-10.9612 -15.369471,-18.71317 -6.289734,-7.75197 -8.097422,-15.93044 -9.175002,-22.94245 -1.077581,-7.01201 -1.425031,-12.85742 -1.043917,-19.92126 0.381115,-7.06384 1.490796,-15.34607 2.530664,-21.51783 1.039868,-6.17177 2.009925,-10.23308 6.262663,-18.72053 4.252739,-8.48744 11.788182,-21.40107 13.087394,-27.29083 1.299213,-5.88977 -3.637797,-4.75568 -8.65022,-1.66626 -5.012422,3.08943 -10.100253,8.13419 -15.19114,17.40467 -5.090887,9.27048 -10.184819,22.76665 -13.353107,36.2785 -3.168289,13.51185 -4.410932,27.03937 -2.273579,40.47818 2.137354,13.43881 7.654704,26.7889 17.491288,33.49088 9.836584,6.70199 23.992401,6.75587 25.684427,3.1201 z"
       id="path4"
       inkscape:path-effect="#path-effect4"
       inkscape:original-d="M 103.73839,297 C 92.966624,289.67458 82.194862,282.34915 71.423092,275.02373 69.615394,266.84521 67.807706,258.66674 66,250.48819 c -0.347455,-5.84547 -0.694905,-11.69088 -1.042358,-17.53633 1.109682,-8.28223 2.219363,-16.56446 3.329045,-24.84668 0.970054,-4.06131 1.940111,-8.12262 2.910163,-12.18392 7.535425,-12.91359 15.070868,-25.82722 22.6063,-38.74083 -4.937007,1.13408 -9.874017,2.26817 -14.811024,3.40225 -5.087838,5.04477 -10.175669,10.08953 -15.263506,15.13431 -5.093937,13.49618 -10.187869,26.99235 -15.281803,40.48852 -1.242643,13.52753 -2.485286,27.05505 -3.72793,40.58258 5.517351,13.35009 11.034701,26.70018 16.552052,40.05027 14.155817,0.0539 28.311634,0.10776 42.467451,0.16164 z"
       sodipodi:nodetypes="ccccscccccccc"
       transform="matrix(1.0738906,0,0,1.4013726,-8.1864694,-215.1467)" />
    <path
       style="fill:#50c878;fill-opacity:1;stroke:#000000;stroke-width:1.05833"
       d="m 133.91938,292.33347 c 9.35079,-5.10984 12.11933,-13.75472 14.93933,-23.14206 2.82001,-9.38735 5.69147,-19.51716 3.23827,-36.87171 -2.4532,-17.35456 -10.23105,-41.93386 -19.00914,-55.17672 -8.77808,-13.24286 -18.5564,-15.14928 -17.21848,-7.23033 1.33791,7.91895 13.79205,25.66326 19.11577,41.07176 5.32373,15.4085 3.51703,28.48117 1.59727,38.69686 -1.91976,10.21569 -3.95258,17.57441 -11.28473,25.58352 -7.33215,8.00912 -19.96362,16.66862 -18.31285,20.21097 1.65077,3.54235 17.58378,1.96755 26.93456,-3.14229 z"
       id="path5"
       inkscape:path-effect="#path-effect5"
       inkscape:original-d="m 140.50162,295.8685 c 2.76855,-8.64487 5.53709,-17.28975 8.30564,-25.93463 2.87146,-10.12981 5.74292,-20.25962 8.61438,-30.38943 -7.77786,-24.5793 -15.55571,-49.1586 -23.33356,-73.7379 -9.77832,-1.90642 -19.55664,-3.81284 -29.33496,-5.71926 12.45415,17.74432 24.90829,35.48863 37.36244,53.23296 -1.8067,13.07267 -3.6134,26.14534 -5.4201,39.21801 -2.03282,7.35871 -4.06564,14.71743 -6.09846,22.07614 -12.63148,8.65952 -25.26295,17.31902 -37.894445,25.97853 15.933035,-1.57481 31.866045,-3.14961 47.799065,-4.72442 z"
       sodipodi:nodetypes="cccccccccc"
       transform="matrix(1.0738906,0,0,1.4013726,-8.1864694,-215.1467)" />
  </g>
</svg>
