<?xml version="1.0" encoding="UTF-8" standalone="no"?>
<!-- Created with Inkscape (http://www.inkscape.org/) -->

<svg
   width="37"
   height="37"
   viewBox="0 0 206.09599 206.09599"
   version="1.1"
   id="svg1"
   inkscape:version="1.4.4 (dcaf3e7, 2026-05-05)"
   sodipodi:docname="green_flame_e.svg"
   xmlns:inkscape="http://www.inkscape.org/namespaces/inkscape"
   xmlns:sodipodi="http://sodipodi.sourceforge.net/DTD/sodipodi-0.dtd"
   xmlns="http://www.w3.org/2000/svg"
   xmlns:svg="http://www.w3.org/2000/svg">
  <sodipodi:namedview
     id="namedview1"
     pagecolor="#ffffff"
     bordercolor="#000000"
     borderopacity="0.25"
     inkscape:showpageshadow="2"
     inkscape:pageopacity="0.0"
     inkscape:pagecheckerboard="0"
     inkscape:deskcolor="#d1d1d1"
     inkscape:document-units="px"
     inkscape:zoom="24.59"
     inkscape:cx="8.0113867"
     inkscape:cy="18.442456"
     inkscape:window-width="3440"
     inkscape:window-height="1361"
     inkscape:window-x="-9"
     inkscape:window-y="-9"
     inkscape:window-maximized="1"
     inkscape:current-layer="layer1" />
  <defs
     id="defs1">
    <inkscape:path-effect
       effect="bspline"
       id="path-effect5"
       is_visible="true"
       lpeversion="1.3"
       weight="33.333333"
       steps="2"
       helper_size="0"
       apply_no_weight="true"
       apply_with_weight="true"
       only_selected="false"
       uniform="false" />
    <inkscape:path-effect
       effect="bspline"
       id="path-effect4"
       is_visible="true"
       lpeversion="1.3"
       weight="33.333333"
       steps="2"
       helper_size="0"
       apply_no_weight="true"
       apply_with_weight="true"
       only_selected="false"
       uniform="false" />
    <inkscape:path-effect
       effect="bspline"
       id="path-effect3"
       is_visible="true"
       lpeversion="1.3"
       weight="33.333333"
       steps="2"
       helper_size="0"
       apply_no_weight="true"
       apply_with_weight="true"
       only_selected="false"
       uniform="false" />
    <inkscape:path-effect
       effect="bspline"
       id="path-effect2"
       is_visible="true"
       lpeversion="1.3"
       weight="33.333333"
       steps="2"
       helper_size="0"
       apply_no_weight="true"
       apply_with_weight="true"
       only_selected="false"
       uniform="false" />
  </defs>
  <g
     inkscape:label="Layer 1"
     inkscape:groupmode="layer"
     id="layer1">
    <path
       style="fill:#50c878;fill-opacity:1;stroke:#000000;stroke-width:1.05833"
       d="m 52.24626,295.12473 c 2.473608,-1.92014 -11.087217,-9.33896 -17.718309,-20.7701 -6.631092,-11.43114 -6.332425,-26.87455 -2.222794,-48.72702 4.109632,-21.85247 12.030219,-50.11395 10.957684,-57.24179 -1.072534,-7.12784 -11.138185,6.87797 -17.557465,22.43179 -6.419281,15.55382 -9.19217,32.6556 -10.742577,49.42529 -1.550407,16.7697 -1.878326,33.20725 7.211742,43.21532 9.090068,10.00807 27.598112,13.58664 30.071719,11.66651 z"
       id="path2"
       inkscape:path-effect="#path-effect2"
       inkscape:original-d="m 68.280712,300.62343 c -13.560844,-7.41884 -27.121669,-14.83766 -40.682521,-22.2565 0.298668,-15.44344 0.597335,-30.88685 0.896002,-46.33028 7.920596,-28.26151 15.841183,-56.52299 23.761779,-84.78451 -10.065665,14.00584 -20.131316,28.01165 -30.196982,42.01749 -2.772895,17.1018 -5.545784,34.20358 -8.318679,51.30539 -0.327919,16.43758 -0.655838,32.87513 -0.983758,49.31271 18.508056,3.57856 37.0161,7.15713 55.524159,10.7357 z"
       sodipodi:nodetypes="cccccccc"
       transform="matrix(1.0738906,0,0,1.4013726,-2.7499553,-215.18945)" />
    <path
       style="fill:#50c878;fill-opacity:1;stroke:#000000;stroke-width:1.05833"
       d="m 145.87589,293.06662 c -2.57969,-7.74342 16.76897,-30.29652 22.57573,-50.1705 5.80676,-19.87398 -1.9284,-37.0688 -10.55578,-51.89293 -8.62738,-14.82414 -18.14697,-27.27756 -15.71362,-29.16542 2.43335,-1.88785 16.81962,6.78987 26.78914,18.83886 9.96952,12.04899 15.52225,27.46923 19.53618,45.69792 4.01393,18.22869 6.48905,39.26579 -4.52744,53.3175 -11.01648,14.05172 -35.52451,21.11799 -38.10421,13.37457 z"
       id="path3"
       inkscape:path-effect="#path-effect3"
       inkscape:original-d="m 123.9475,307.87633 c 19.3487,-22.55313 38.69736,-45.10623 58.04604,-67.65935 -7.73516,-17.19484 -15.47032,-34.38966 -23.20549,-51.5845 -9.51959,-12.45343 -19.03918,-24.90685 -28.55877,-37.36028 14.38629,8.67772 28.77256,17.35544 43.15886,26.03316 5.55274,15.42026 11.10547,30.8405 16.65821,46.26076 2.47512,21.03712 4.95024,42.07422 7.42536,63.11135 -24.50809,7.0663 -49.01612,14.13257 -73.52421,21.19886 z"
       sodipodi:nodetypes="cccccccc"
       transform="matrix(1.0738906,0,0,1.4013726,-13.622984,-211.98871)" />
    <path
       style="fill:#50c878;fill-opacity:1;stroke:#000000;stroke-width:1.05833"
       d="m 96.345102,294.87661 c 1.199844,-3.72273 -10.279052,-13.16175 -18.363759,-21.13538 -8.084707,-7.97364 -12.775161,-14.48181 -15.223826,-20.76642 -2.448664,-6.28462 -2.655492,-12.34555 -1.008765,-19.62492 1.646727,-7.27936 5.147006,-15.7771 9.913401,-24.99314 4.766395,-9.21604 10.798893,-19.15036 15.789907,-27.34147 4.991013,-8.19111 8.940547,-14.63902 7.146044,-16.08361 -1.794503,-1.4446 -9.333043,2.11413 -15.751703,6.68528 -6.41866,4.57115 -11.71742,10.15472 -16.210661,17.99736 -4.493242,7.84264 -8.180934,17.9443 -10.329703,30.21689 -2.14877,12.2726 -2.758607,26.71608 0.01155,39.5414 2.770161,12.82532 8.920314,24.03243 18.934692,30.63278 10.014378,6.60036 23.892974,8.59395 25.092818,4.87123 z"
       id="path4"
       inkscape:path-effect="#path-effect4"
       inkscape:original-d="m 109.02386,300.59292 c -11.478914,-9.43904 -22.95781,-18.87806 -34.436738,-28.31711 -4.690486,-6.50822 -9.38094,-13.01639 -14.071439,-19.52462 -0.20683,-6.061 -0.413658,-12.12193 -0.620488,-18.1829 3.500284,-8.49776 7.000563,-16.9955 10.500845,-25.49325 6.032508,-9.93433 12.065006,-19.86865 18.097504,-29.80296 3.949529,-6.44791 7.899063,-12.89582 11.848596,-19.34373 -7.538539,3.55872 -15.077079,7.11745 -22.615625,10.67617 -5.298774,5.58358 -10.597534,11.16715 -15.896312,16.75074 -3.687705,10.10169 -7.375397,20.20335 -11.063098,30.30503 -0.609838,14.44351 -1.219675,28.88699 -1.829513,43.3305 6.150161,11.20713 12.300314,22.41424 18.45047,33.62136 13.8786,1.99359 27.757196,3.98718 41.635798,5.98077 z"
       sodipodi:nodetypes="ccccscccccccc"
       transform="matrix(1.0738906,0,0,1.4013726,-8.1864694,-215.1467)" />
    <path
       style="fill:#50c878;fill-opacity:1;stroke:#000000;stroke-width:1.05833"
       d="m 124.14605,291.55219 c 8.36641,-3.73588 14.50992,-8.5552 19.29866,-16.5686 4.78874,-8.01339 8.22269,-19.22079 5.76949,-35.90185 -2.4532,-16.68105 -10.79354,-38.8357 -18.90367,-54.00731 -8.11013,-15.17162 -15.99002,-23.36018 -16.37475,-19.69781 -0.38472,3.66236 6.72573,19.17564 11.4518,33.5225 4.72608,14.34687 7.06777,27.5273 6.48394,38.36262 -0.58384,10.83533 -4.0932,19.32552 -10.79256,29.48988 -6.69935,10.16436 -16.58865,22.00281 -16.23865,26.59584 0.35,4.59303 10.93932,1.94061 19.30574,-1.79527 z"
       id="path5"
       inkscape:path-effect="#path-effect5"
       inkscape:original-d="m 126.36895,292.63565 c 6.14351,-4.81934 12.28702,-9.63866 18.43054,-14.45801 3.43396,-11.20744 6.86791,-22.41484 10.30187,-33.62227 -8.34036,-22.15468 -16.6807,-44.30933 -25.02105,-66.464 -7.87991,-8.18856 -15.7598,-16.37712 -23.63971,-24.56568 7.11046,15.51329 14.22091,31.02657 21.33136,46.53986 2.3417,13.18044 4.68339,26.36087 7.02509,39.5413 -3.50937,8.49022 -7.01873,16.98041 -10.52811,25.47064 -9.88933,11.83849 -19.77863,23.67694 -29.667968,35.51543 10.589338,-2.65243 21.178658,-5.30485 31.767978,-7.95727 z"
       sodipodi:nodetypes="cccccccccc"
       transform="matrix(1.0738906,0,0,1.4013726,-8.1864694,-215.1467)" />
  </g>
</svg>
