<?xml version="1.0" encoding="UTF-8" standalone="no"?>
<!-- Created with Inkscape (http://www.inkscape.org/) -->

<svg
   width="37"
   height="37"
   viewBox="0 0 206.09599 206.09599"
   version="1.1"
   id="svg1"
   inkscape:version="1.4.4 (dcaf3e7, 2026-05-05)"
   sodipodi:docname="green_flame_c.svg"
   xmlns:inkscape="http://www.inkscape.org/namespaces/inkscape"
   xmlns:sodipodi="http://sodipodi.sourceforge.net/DTD/sodipodi-0.dtd"
   xmlns="http://www.w3.org/2000/svg"
   xmlns:svg="http://www.w3.org/2000/svg">
  <sodipodi:namedview
     id="namedview1"
     pagecolor="#ffffff"
     bordercolor="#000000"
     borderopacity="0.25"
     inkscape:showpageshadow="2"
     inkscape:pageopacity="0.0"
     inkscape:pagecheckerboard="0"
     inkscape:deskcolor="#d1d1d1"
     inkscape:document-units="px"
     inkscape:zoom="24.59"
     inkscape:cx="8.0113867"
     inkscape:cy="18.442456"
     inkscape:window-width="3440"
     inkscape:window-height="1361"
     inkscape:window-x="-9"
     inkscape:window-y="-9"
     inkscape:window-maximized="1"
     inkscape:current-layer="layer1" />
  <defs
     id="defs1">
    <inkscape:path-effect
       effect="bspline"
       id="path-effect5"
       is_visible="true"
       lpeversion="1.3"
       weight="33.333333"
       steps="2"
       helper_size="0"
       apply_no_weight="true"
       apply_with_weight="true"
       only_selected="false"
       uniform="false" />
    <inkscape:path-effect
       effect="bspline"
       id="path-effect4"
       is_visible="true"
       lpeversion="1.3"
       weight="33.333333"
       steps="2"
       helper_size="0"
       apply_no_weight="true"
       apply_with_weight="true"
       only_selected="false"
       uniform="false" />
    <inkscape:path-effect
       effect="bspline"
       id="path-effect3"
       is_visible="true"
       lpeversion="1.3"
       weight="33.333333"
       steps="2"
       helper_size="0"
       apply_no_weight="true"
       apply_with_weight="true"
       only_selected="false"
       uniform="false" />
    <inkscape:path-effect
       effect="bspline"
       id="path-effect2"
       is_visible="true"
       lpeversion="1.3"
       weight="33.333333"
       steps="2"
       helper_size="0"
       apply_no_weight="true"
       apply_with_weight="true"
       only_selected="false"
       uniform="false" />
  </defs>
  <g
     inkscape:label="Layer 1"
     inkscape:groupmode="layer"
     id="layer1">
    <path
       style="fill:#50c878;fill-opacity:1;stroke:#000000;stroke-width:1.05833"
       d="m 54.320461,296.12152 c 2.930633,-2.86305 -7.466175,-10.228 -14.483978,-20.06964 -7.017802,-9.84165 -10.656592,-22.15998 -8.480534,-41.90498 2.176057,-19.745 10.166957,-46.91664 9.024111,-54.42165 -1.142846,-7.505 -11.419436,4.65664 -17.768403,19.71941 -6.348967,15.06278 -8.770299,33.02665 -8.738691,49.55388 0.03161,16.52722 2.51616,31.61777 11.887473,39.98247 9.371314,8.3647 25.629389,10.00356 28.560022,7.14051 z"
       id="path2"
       inkscape:path-effect="#path-effect2"
       inkscape:original-d="M 67.647906,300.62343 C 57.251094,293.25847 46.854286,285.89352 36.457473,278.52857 32.818681,266.21023 29.179891,253.8919 25.541099,241.57356 c 7.990907,-27.17166 15.981807,-54.3433 23.972714,-81.51496 -10.276599,12.16165 -20.553189,24.32329 -30.829788,36.48494 -2.421335,17.9639 -4.842667,35.92777 -7.264002,53.89167 2.484552,15.09055 4.969103,30.1811 7.453654,45.27165 16.258076,1.63885 32.516151,3.27771 48.774229,4.91657 z"
       sodipodi:nodetypes="cccccccc"
       transform="matrix(1.0738906,0,0,1.4013726,-2.7499553,-215.18945)" />
    <path
       style="fill:#50c878;fill-opacity:1;stroke:#000000;stroke-width:1.05833"
       d="m 155.33282,285.7888 c -0.71643,-7.17768 11.812,-23.30354 17.09142,-38.2397 5.27942,-14.93616 3.30982,-28.68262 -3.48945,-45.13628 -6.79927,-16.45366 -18.42822,-35.61451 -15.74878,-36.61333 2.67944,-0.99882 19.66725,16.16439 29.77739,31.86344 10.11014,15.69905 13.34259,29.93392 12.36438,44.98364 -0.9782,15.04972 -6.16706,30.91426 -15.74215,39.73182 -9.57509,8.81755 -23.53638,10.58808 -24.25281,3.41041 z"
       id="path3"
       inkscape:path-effect="#path-effect3"
       inkscape:original-d="m 142.08794,294.737 c 12.52845,-16.12588 25.05688,-32.25174 37.58532,-48.37761 -1.9696,-13.74645 -3.9392,-27.49291 -5.9088,-41.23937 -11.62894,-19.16086 -23.25789,-38.32171 -34.88683,-57.48257 16.98782,17.16322 33.97563,34.32643 50.96346,51.48965 3.23245,14.23488 6.4649,28.46975 9.69735,42.70463 -5.18886,15.86456 -10.37772,31.7291 -15.56659,47.59367 -13.96131,1.77054 -27.9226,3.54107 -41.88391,5.3116 z"
       sodipodi:nodetypes="cccccccc"
       transform="matrix(1.0738906,0,0,1.4013726,-13.622984,-211.98871)" />
    <path
       style="fill:#50c878;fill-opacity:1;stroke:#000000;stroke-width:1.05833"
       d="m 90.782416,289.81422 c 0.918596,-4.28847 -8.58755,-9.6203 -15.36947,-15.97137 -6.781919,-6.35107 -10.839571,-13.72133 -12.128087,-20.7064 -1.288517,-6.98507 0.192128,-13.58481 1.838856,-20.86417 1.646727,-7.27936 3.459524,-15.2383 4.95642,-23.24202 1.496895,-8.00372 2.677886,-16.05222 7.668896,-24.24332 4.99101,-8.1911 13.792068,-16.52485 14.212384,-19.88221 0.420315,-3.35737 -7.540097,-1.73836 -14.169691,0.11181 -6.629593,1.85017 -11.928355,3.93149 -15.648166,11.90883 -3.719811,7.97734 -5.860647,21.85066 -8.325819,35.76662 -2.465172,13.91596 -5.254673,27.87453 -3.082163,42.53179 2.17251,14.65726 9.30703,30.0132 18.545964,36.06861 9.238934,6.05542 20.58228,2.81031 21.500876,-1.47817 z"
       id="path4"
       inkscape:path-effect="#path-effect4"
       inkscape:original-d="m 101.20717,290.85758 c -9.506158,-5.33183 -19.012304,-10.66366 -28.518466,-15.99549 -4.057677,-7.37031 -8.115329,-14.74057 -12.173021,-22.1109 1.480659,-6.59981 2.961304,-13.19955 4.441959,-19.79933 1.8128,-7.95894 3.625597,-15.91788 5.438398,-23.87682 1.18099,-8.0485 2.361981,-16.097 3.542969,-24.14547 8.801032,-8.33373 17.60209,-16.66748 26.403131,-25.00122 -7.96041,1.61901 -15.920822,3.23802 -23.881237,4.85704 -5.298772,2.08132 -10.597534,4.16264 -15.896312,6.24397 -2.140844,13.87335 -4.28168,27.74667 -6.422521,41.62001 -2.789503,13.95858 -5.579004,27.91715 -8.368507,41.87572 7.134523,15.35595 14.269043,30.71189 21.403564,46.06783 11.343347,-3.24511 22.686693,-6.49022 34.030043,-9.73534 z"
       sodipodi:nodetypes="ccccscccccccc"
       transform="matrix(1.0738906,0,0,1.4013726,-8.1864694,-215.1467)" />
    <path
       style="fill:#50c878;fill-opacity:1;stroke:#000000;stroke-width:1.05833"
       d="m 131.73972,290.12435 c 10.40546,-4.9482 14.79117,-12.08441 18.98226,-22.17221 4.19108,-10.0878 8.18753,-23.12717 4.71481,-40.10456 -3.47272,-16.97739 -14.4146,-37.89279 -25.12626,-49.38452 -10.71166,-11.49173 -21.1931,-13.55979 -20.13643,-5.72167 1.05667,7.83813 13.65143,25.58244 19.43218,40.80236 5.78076,15.21992 4.74749,27.91542 2.96835,37.53842 -1.77914,9.62301 -4.30414,16.1735 -11.77692,23.91322 -7.47277,7.73971 -19.8933,16.66861 -17.89097,19.75298 2.00233,3.08436 18.42752,0.32418 28.83298,-4.62402 z"
       id="path5"
       inkscape:path-effect="#path-effect5"
       inkscape:original-d="m 137.75946,292.31236 c 4.38572,-7.13621 8.77143,-14.27242 13.15715,-21.40863 3.99645,-13.03939 7.9929,-26.07876 11.98935,-39.11813 -10.94189,-20.91541 -21.88377,-41.83081 -32.82565,-62.74621 -10.48144,-2.06806 -20.96288,-4.13612 -31.444313,-6.20419 12.594773,17.74432 25.189533,35.48863 37.784313,53.23296 -1.03327,12.69551 -2.06654,25.39101 -3.09981,38.08652 -2.52501,6.5505 -5.05001,13.10099 -7.57501,19.6515 -12.42055,8.92892 -24.84108,17.85782 -37.261641,26.78674 16.425221,-2.76019 32.850411,-5.52037 49.275611,-8.28056 z"
       sodipodi:nodetypes="cccccccccc"
       transform="matrix(1.0738906,0,0,1.4013726,-8.1864694,-215.1467)" />
  </g>
</svg>
