<?xml version="1.0" encoding="UTF-8" standalone="no"?>
<!-- Created with Inkscape (http://www.inkscape.org/) -->

<svg
   width="37"
   height="37"
   viewBox="0 0 206.09599 206.09599"
   version="1.1"
   id="svg1"
   inkscape:version="1.4.4 (dcaf3e7, 2026-05-05)"
   sodipodi:docname="green_flame_a.svg"
   xmlns:inkscape="http://www.inkscape.org/namespaces/inkscape"
   xmlns:sodipodi="http://sodipodi.sourceforge.net/DTD/sodipodi-0.dtd"
   xmlns="http://www.w3.org/2000/svg"
   xmlns:svg="http://www.w3.org/2000/svg">
  <sodipodi:namedview
     id="namedview1"
     pagecolor="#ffffff"
     bordercolor="#000000"
     borderopacity="0.25"
     inkscape:showpageshadow="2"
     inkscape:pageopacity="0.0"
     inkscape:pagecheckerboard="0"
     inkscape:deskcolor="#d1d1d1"
     inkscape:document-units="px"
     inkscape:zoom="24.59"
     inkscape:cx="8.0113867"
     inkscape:cy="18.442456"
     inkscape:window-width="3440"
     inkscape:window-height="1361"
     inkscape:window-x="-9"
     inkscape:window-y="-9"
     inkscape:window-maximized="1"
     inkscape:current-layer="layer1" />
  <defs
     id="defs1">
    <inkscape:path-effect
       effect="bspline"
       id="path-effect5"
       is_visible="true"
       lpeversion="1.3"
       weight="33.333333"
       steps="2"
       helper_size="0"
       apply_no_weight="true"
       apply_with_weight="true"
       only_selected="false"
       uniform="false" />
    <inkscape:path-effect
       effect="bspline"
       id="path-effect4"
       is_visible="true"
       lpeversion="1.3"
       weight="33.333333"
       steps="2"
       helper_size="0"
       apply_no_weight="true"
       apply_with_weight="true"
       only_selected="false"
       uniform="false" />
    <inkscape:path-effect
       effect="bspline"
       id="path-effect3"
       is_visible="true"
       lpeversion="1.3"
       weight="33.333333"
       steps="2"
       helper_size="0"
       apply_no_weight="true"
       apply_with_weight="true"
       only_selected="false"
       uniform="false" />
    <inkscape:path-effect
       effect="bspline"
       id="path-effect2"
       is_visible="true"
       lpeversion="1.3"
       weight="33.333333"
       steps="2"
       helper_size="0"
       apply_no_weight="true"
       apply_with_weight="true"
       only_selected="false"
       uniform="false" />
  </defs>
  <g
     inkscape:label="Layer 1"
     inkscape:groupmode="layer"
     id="layer1">
    <path
       style="fill:#50c878;fill-opacity:1;stroke:#000000;stroke-width:1.05833"
       d="m 48.027559,294.27165 c 2.122049,-2.72834 -5.673232,-8.18504 -11.952758,-16.80315 -6.279526,-8.61811 -11.043304,-20.39763 -9.007871,-39.49606 2.035432,-19.09842 10.870079,-45.51575 12.082676,-54.61024 1.212597,-9.09448 -5.196848,-0.86614 -12.992126,12.47245 -7.795277,13.33858 -16.976376,31.78739 -17.9291328,49.49999 -0.9527567,17.7126 6.3228338,34.68898 15.9803138,43.17717 C 33.866141,297 45.905511,297 48.027559,294.27165 Z"
       id="path2"
       inkscape:path-effect="#path-effect2"
       inkscape:original-d="M 57.944882,297 C 50.149606,291.54331 42.354327,286.08661 34.559055,280.62992 29.795276,268.85039 25.031496,257.07087 20.267717,245.29134 29.102363,218.87402 37.937008,192.45669 46.771654,166.03937 40.362205,174.26772 33.952756,182.49606 27.543307,190.72441 18.362203,209.17323 9.1811039,227.62204 0,246.07086 7.2755915,263.04724 14.551181,280.02362 21.826771,297 c 12.03937,0 24.07874,0 36.118111,0 z"
       sodipodi:nodetypes="cccccccc"
       transform="matrix(1.0738906,0,0,1.4013726,-2.7499553,-215.18945)" />
    <path
       style="fill:#50c878;fill-opacity:1;stroke:#000000;stroke-width:1.05833"
       d="m 156.59842,288.07874 c 3.29134,-8.22834 17.92914,-25.37795 21.69685,-40.44882 3.76772,-15.07086 -3.33464,-28.06299 -7.14566,-43.87008 -3.81103,-15.80708 -4.33071,-34.42913 -1.86221,-34.86221 2.4685,-0.43307 7.9252,17.32284 15.20866,31.91733 7.28347,14.59449 16.3937,26.02756 14.18504,41.18504 -2.20866,15.15748 -15.73622,34.03936 -26.52756,43.82676 -10.79134,9.78741 -18.84645,10.48032 -15.55512,2.25198 z"
       id="path3"
       inkscape:path-effect="#path-effect3"
       inkscape:original-d="m 145.25197,297 c 14.63779,-17.1496 29.27559,-34.29921 43.91338,-51.44882 -7.10236,-12.99212 -14.20472,-25.98425 -21.30708,-38.97638 -0.51969,-18.62204 -1.03937,-37.24409 -1.55906,-55.86614 5.45669,17.7559 10.91338,35.51181 16.37008,53.26772 9.11024,11.43307 18.22047,22.86614 27.33071,34.29921 -13.52756,18.88189 -27.05512,37.76377 -40.58268,56.64566 -8.05512,0.69292 -16.11023,1.38583 -24.16535,2.07875 z"
       sodipodi:nodetypes="cccccccc"
       transform="matrix(1.0738906,0,0,1.4013726,-13.622984,-211.98871)" />
    <path
       style="fill:#50c878;fill-opacity:1;stroke:#000000;stroke-width:1.05833"
       d="m 87.653543,293.79527 c 2.07874,-3.20472 -7.708661,-9.61417 -13.295276,-17.36614 -5.586614,-7.75197 -6.972434,-16.84641 -8.401575,-24.20865 -1.429141,-7.36224 -2.901574,-12.99213 -3.118109,-19.92126 -0.216536,-6.92914 0.822835,-15.15749 2.425197,-21.43701 1.602361,-6.27953 3.76772,-10.61025 8.618107,-20.09449 4.850388,-9.48424 12.385833,-24.12206 13.685044,-30.01182 1.299212,-5.88976 -3.637798,-3.03149 -8.22835,0.86615 -4.590551,3.89764 -8.834642,8.83464 -13.468501,17.53937 -4.633859,8.70472 -9.657482,21.17716 -12.685147,34.41961 -3.027665,13.24244 -4.059373,27.2549 -2.976696,41.28639 1.082677,14.0315 4.27974,28.08204 12.850711,35.10731 C 71.62992,297 85.574803,297 87.653543,293.79527 Z"
       id="path4"
       inkscape:path-effect="#path-effect4"
       inkscape:original-d="M 99.519685,297 C 89.732283,290.59055 79.944882,284.1811 70.15748,277.77165 68.771653,268.67716 67.385834,259.58272 66,250.48819 c -1.472448,-5.62995 -2.944882,-11.25984 -4.417323,-16.88976 1.03937,-8.22835 2.07874,-16.4567 3.11811,-24.68504 2.165354,-4.33071 4.330711,-8.66143 6.496063,-12.99213 7.535424,-14.63778 15.070869,-29.2756 22.6063,-43.91339 -4.937007,2.85827 -9.874018,5.71654 -14.811024,8.57481 -4.244094,4.93701 -8.488189,9.87401 -12.732283,14.81102 -5.023622,12.47244 -10.047245,24.94488 -15.070867,37.41732 -1.031708,14.01245 -2.063416,28.02491 -3.095124,42.03736 3.197062,14.05054 6.394125,28.10108 9.591187,42.15162 13.944881,0 27.889764,0 41.834646,0 z"
       sodipodi:nodetypes="ccccscccccccc"
       transform="matrix(1.0738906,0,0,1.4013726,-8.1864694,-215.1467)" />
    <path
       style="fill:#50c878;fill-opacity:1;stroke:#000000;stroke-width:1.05833"
       d="m 128.18898,290.98032 c 8.40157,-6.01969 13.77165,-18.05906 19.22834,-28.71261 5.4567,-10.65354 11.00001,-19.92126 7.49213,-37.11417 -3.50787,-17.19291 -16.06693,-42.31102 -25.16141,-53.61417 -9.09449,-11.30315 -14.72442,-8.79134 -12.47245,1.25591 2.25197,10.04724 12.38582,27.62991 17.32283,42.31101 4.93701,14.68111 4.67717,26.46064 1.94883,36.81103 -2.72835,10.3504 -7.9252,19.27166 -14.94095,26.54725 -7.01575,7.27559 -15.85039,12.90551 -14.55118,15.72047 C 108.35434,297 119.7874,297 128.18898,290.98032 Z"
       id="path5"
       inkscape:path-effect="#path-effect5"
       inkscape:original-d="m 131.22047,297 c 5.37008,-12.03937 10.74016,-24.07874 16.11024,-36.11811 5.54331,-9.26772 11.08662,-18.53544 16.62992,-27.80315 -12.55905,-25.11811 -25.1181,-50.23622 -37.67716,-75.35433 -5.62992,2.51181 -11.25985,5.02362 -16.88977,7.53543 10.13386,17.58268 20.26771,35.16535 30.40157,52.74803 -0.25984,11.77953 -0.51968,23.55906 -0.77952,35.33859 -5.19685,8.92126 -10.3937,17.84252 -15.59055,26.76378 -8.83465,5.62992 -17.66929,11.25984 -26.503939,16.88976 11.433079,0 22.866139,0 34.299209,0 z"
       sodipodi:nodetypes="cccccccccc"
       transform="matrix(1.0738906,0,0,1.4013726,-8.1864694,-215.1467)" />
  </g>
</svg>
