<?xml version="1.0" encoding="UTF-8" standalone="no"?>
<!-- Created with Inkscape (http://www.inkscape.org/) -->

<svg
   width="37"
   height="37"
   viewBox="0 0 206.09599 206.09599"
   version="1.1"
   id="svg1"
   inkscape:version="1.4.4 (dcaf3e7, 2026-05-05)"
   sodipodi:docname="green_flame_d.svg"
   xmlns:inkscape="http://www.inkscape.org/namespaces/inkscape"
   xmlns:sodipodi="http://sodipodi.sourceforge.net/DTD/sodipodi-0.dtd"
   xmlns="http://www.w3.org/2000/svg"
   xmlns:svg="http://www.w3.org/2000/svg">
  <sodipodi:namedview
     id="namedview1"
     pagecolor="#ffffff"
     bordercolor="#000000"
     borderopacity="0.25"
     inkscape:showpageshadow="2"
     inkscape:pageopacity="0.0"
     inkscape:pagecheckerboard="0"
     inkscape:deskcolor="#d1d1d1"
     inkscape:document-units="px"
     inkscape:zoom="24.59"
     inkscape:cx="8.0113867"
     inkscape:cy="18.442456"
     inkscape:window-width="3440"
     inkscape:window-height="1361"
     inkscape:window-x="-9"
     inkscape:window-y="-9"
     inkscape:window-maximized="1"
     inkscape:current-layer="layer1" />
  <defs
     id="defs1">
    <inkscape:path-effect
       effect="bspline"
       id="path-effect5"
       is_visible="true"
       lpeversion="1.3"
       weight="33.333333"
       steps="2"
       helper_size="0"
       apply_no_weight="true"
       apply_with_weight="true"
       only_selected="false"
       uniform="false" />
    <inkscape:path-effect
       effect="bspline"
       id="path-effect4"
       is_visible="true"
       lpeversion="1.3"
       weight="33.333333"
       steps="2"
       helper_size="0"
       apply_no_weight="true"
       apply_with_weight="true"
       only_selected="false"
       uniform="false" />
    <inkscape:path-effect
       effect="bspline"
       id="path-effect3"
       is_visible="true"
       lpeversion="1.3"
       weight="33.333333"
       steps="2"
       helper_size="0"
       apply_no_weight="true"
       apply_with_weight="true"
       only_selected="false"
       uniform="false" />
    <inkscape:path-effect
       effect="bspline"
       id="path-effect2"
       is_visible="true"
       lpeversion="1.3"
       weight="33.333333"
       steps="2"
       helper_size="0"
       apply_no_weight="true"
       apply_with_weight="true"
       only_selected="false"
       uniform="false" />
  </defs>
  <g
     inkscape:label="Layer 1"
     inkscape:groupmode="layer"
     id="layer1">
    <path
       style="fill:#50c878;fill-opacity:1;stroke:#000000;stroke-width:1.05833"
       d="m 53.441561,294.74756 c 1.981422,-1.97401 -10.243485,-9.82389 -17.261288,-19.66554 -7.017803,-9.84165 -8.828488,-21.67505 -5.421975,-42.26132 3.406514,-20.58627 12.03022,-49.92537 11.098309,-57.43038 -0.931911,-7.505 -11.419433,6.8241 -17.838713,22.64732 -6.419281,15.82323 -8.7703,33.14053 -8.914471,48.53626 -0.144171,15.39573 1.918509,28.86985 11.043731,37.55784 9.125223,8.68799 25.312985,12.58984 27.294407,10.61582 z"
       id="path2"
       inkscape:path-effect="#path-effect2"
       inkscape:original-d="m 67.647906,300.62343 c -12.224923,-7.84988 -24.44983,-15.69976 -36.67475,-23.54964 -1.810686,-11.83342 -3.621371,-23.66682 -5.432057,-35.50023 8.623713,-29.33913 17.247419,-58.67823 25.871132,-88.01736 -10.487535,14.32912 -20.975057,28.65822 -31.462594,42.98734 -2.351024,17.31733 -4.702043,34.63463 -7.053067,51.95196 2.062682,13.47413 4.125362,26.94825 6.188042,40.42237 16.187765,3.90186 32.375527,7.80371 48.563294,11.70556 z"
       sodipodi:nodetypes="cccccccc"
       transform="matrix(1.0738906,0,0,1.4013726,-2.7499553,-215.18945)" />
    <path
       style="fill:#50c878;fill-opacity:1;stroke:#000000;stroke-width:1.05833"
       d="m 152.73129,288.62145 c -0.36488,-5.34572 14.55415,-20.40939 20.607,-35.11081 6.05285,-14.70141 3.23951,-29.04055 -5.42302,-46.01992 -8.66254,-16.97937 -23.17426,-36.59894 -22.07684,-38.78314 1.09743,-2.1842 17.80399,13.06698 28.8985,28.10636 11.0945,15.03938 16.57692,29.86694 17.25104,44.56643 0.67412,14.69949 -3.46006,29.2709 -13.35155,38.74273 -9.8915,9.47184 -25.54026,13.84408 -25.90513,8.49835 z"
       id="path3"
       inkscape:path-effect="#path-effect3"
       inkscape:original-d="m 137.44736,298.33942 c 14.91905,-15.06369 29.83808,-30.12736 44.75712,-45.19104 -2.81334,-14.33915 -5.62668,-28.67829 -8.44002,-43.01744 -14.51173,-19.61959 -29.02345,-39.23916 -43.53518,-58.85874 16.70658,15.25118 33.41314,30.50236 50.11972,45.75355 5.48243,14.82757 10.96485,29.65513 16.44728,44.48269 -4.13419,14.57142 -8.26837,29.14283 -12.40256,43.71425 -15.6488,4.37225 -31.29756,8.74449 -46.94636,13.11673 z"
       sodipodi:nodetypes="cccccccc"
       transform="matrix(1.0738906,0,0,1.4013726,-13.622984,-211.98871)" />
    <path
       style="fill:#50c878;fill-opacity:1;stroke:#000000;stroke-width:1.05833"
       d="m 91.91546,292.40808 c 0.918597,-4.28847 -9.154073,-10.91723 -16.219254,-17.91676 -7.065181,-6.99954 -11.122832,-14.3698 -12.411347,-21.35487 -1.288516,-6.98507 0.192129,-13.58481 1.838856,-20.86417 1.646726,-7.27936 3.459526,-15.2383 5.800163,-22.35298 2.340637,-7.11469 5.20911,-13.38511 10.20012,-21.57622 4.99101,-8.1911 12.104581,-18.30292 11.681157,-22.54932 -0.423424,-4.2464 -8.383836,-2.62738 -14.697026,0.78533 -6.31319,3.41271 -10.979147,8.61912 -15.261455,17.43161 -4.282307,8.8125 -8.180932,21.23103 -10.435169,34.66206 -2.254238,13.43104 -2.864075,27.87452 -0.12907,41.69664 2.735005,13.82211 8.814848,27.02281 17.809705,32.64908 8.994856,5.62626 20.904724,3.67807 21.82332,-0.6104 z"
       id="path4"
       inkscape:path-effect="#path-effect4"
       inkscape:original-d="m 102.90674,294.74837 c -10.072683,-6.62876 -20.145353,-13.25752 -30.218036,-19.88628 -4.057677,-7.37031 -8.115329,-14.74057 -12.173021,-22.1109 1.480659,-6.59981 2.961304,-13.19955 4.441959,-19.79933 1.8128,-7.95894 3.625597,-15.91788 5.438398,-23.87682 2.868475,-6.27043 5.736948,-12.54085 8.605416,-18.81127 7.113552,-10.11179 14.227123,-20.22361 21.340684,-30.33542 -7.96041,1.61901 -15.920822,3.23802 -23.881237,4.85704 -4.665964,5.20641 -9.331921,10.41282 -13.997894,15.61924 -3.898642,12.41857 -7.797267,24.8371 -11.695904,37.25566 -0.609838,14.44351 -1.219675,28.88699 -1.829513,43.3305 6.079848,13.20072 12.159691,26.40142 18.239535,39.60213 11.909869,-1.94818 23.819737,-3.89637 35.729613,-5.84455 z"
       sodipodi:nodetypes="ccccscccccccc"
       transform="matrix(1.0738906,0,0,1.4013726,-8.1864694,-215.1467)" />
    <path
       style="fill:#50c878;fill-opacity:1;stroke:#000000;stroke-width:1.05833"
       d="m 130.86082,288.83121 c 9.03438,-4.9482 13.4904,-11.43783 17.04869,-20.93295 3.55828,-9.49511 6.2188,-21.99566 2.39452,-38.46119 -3.82427,-16.46553 -14.13335,-36.89599 -23.82549,-48.65713 -9.69214,-11.76114 -18.76734,-14.85294 -17.81614,-8.20019 0.9512,6.65275 11.92879,23.05004 17.70955,38.26996 5.78075,15.21992 6.36465,29.26244 4.86676,39.31649 -1.49789,10.05405 -5.07756,16.11962 -11.53083,23.85933 -6.45326,7.73972 -15.78007,17.15354 -13.63711,20.15709 2.14295,3.00354 15.75567,-0.40321 24.79005,-5.35141 z"
       id="path5"
       inkscape:path-effect="#path-effect5"
       inkscape:original-d="m 135.43917,290.37265 c 4.45603,-6.48964 8.91205,-12.97927 13.36809,-19.46892 2.66053,-12.50058 5.32105,-25.00113 7.98158,-37.5017 -10.30908,-20.43049 -20.61816,-40.86095 -30.92724,-61.29143 -9.0752,-3.0918 -18.1504,-6.1836 -27.225603,-9.2754 10.977603,16.3973 21.955193,32.79459 32.932803,49.1919 0.5839,14.04253 1.1678,28.08505 1.7517,42.12758 -3.57968,6.06557 -7.15935,12.13114 -10.73904,18.19672 -9.32684,9.41385 -18.65365,18.82767 -27.980488,28.24152 13.612748,-3.40676 27.225468,-6.81351 40.838198,-10.22027 z"
       sodipodi:nodetypes="cccccccccc"
       transform="matrix(1.0738906,0,0,1.4013726,-8.1864694,-215.1467)" />
  </g>
</svg>
