<?xml version="1.0" encoding="UTF-8" standalone="no"?>
<!-- Created with Inkscape (http://www.inkscape.org/) -->

<svg
   width="216.10001"
   height="216.10001"
   viewBox="0 0 57.176458 57.17646"
   version="1.1"
   id="svg1"
   xmlns:inkscape="http://www.inkscape.org/namespaces/inkscape"
   xmlns:sodipodi="http://sodipodi.sourceforge.net/DTD/sodipodi-0.dtd"
   xmlns="http://www.w3.org/2000/svg"
   xmlns:svg="http://www.w3.org/2000/svg">
  <sodipodi:namedview
     id="namedview1"
     pagecolor="#ffffff"
     bordercolor="#000000"
     borderopacity="0.25"
     inkscape:showpageshadow="2"
     inkscape:pageopacity="0.0"
     inkscape:pagecheckerboard="0"
     inkscape:deskcolor="#d1d1d1"
     inkscape:document-units="px"
     showgrid="true">
    <inkscape:grid
       id="grid2"
       units="px"
       originx="-7.1305208"
       originy="-7.1305208"
       spacingx="0.26458333"
       spacingy="0.26458333"
       empcolor="#0099e5"
       empopacity="0.30196078"
       color="#0099e5"
       opacity="0.14901961"
       empspacing="27"
       enabled="true"
       visible="true" />
    <inkscape:page
       x="0"
       y="0"
       width="57.176456"
       height="57.17646"
       id="page2"
       margin="0"
       bleed="0" />
  </sodipodi:namedview>
  <defs
     id="defs1" />
  <g
     inkscape:label="Layer 1"
     inkscape:groupmode="layer"
     id="layer1"
     transform="translate(-7.1305209,-7.1305207)">
    <path
       id="path2"
       style="fill:#c8b450;fill-opacity:1;stroke:#000000;stroke-width:0.0264583"
       d="M 35.718749,7.1437499 A 28.575001,28.575001 0 0 0 7.1437499,35.718749 a 28.575001,28.575001 0 0 0 28.5749991,28.575 28.575001,28.575001 0 0 0 28.575,-28.575 28.575001,28.575001 0 0 0 -28.575,-28.5749991 z M 35.70273,14.2875 a 21.43125,21.431252 0 0 1 21.447269,21.409545 l -21.43125,0.0217 h 21.43125 A 21.43125,21.431252 0 0 1 35.723917,57.149999 21.43125,21.431252 0 0 1 14.2875,35.729602 21.43125,21.431252 0 0 1 35.70273,14.2875 Z" />
  </g>
</svg>
