<?xml version="1.0" encoding="UTF-8" standalone="no"?>
<!-- Created with Inkscape (http://www.inkscape.org/) -->

<svg
   width="54"
   height="108"
   viewBox="0 0 13.236825 26.47365"
   version="1.1"
   id="svg1"
   sodipodi:docname="power_tracking_shot.svg"
   inkscape:version="1.4.2 (f4327f4, 2025-05-13)"
   xmlns:inkscape="http://www.inkscape.org/namespaces/inkscape"
   xmlns:sodipodi="http://sodipodi.sourceforge.net/DTD/sodipodi-0.dtd"
   xmlns="http://www.w3.org/2000/svg"
   xmlns:svg="http://www.w3.org/2000/svg">
  <sodipodi:namedview
     id="namedview1"
     pagecolor="#ffffff"
     bordercolor="#000000"
     borderopacity="0.25"
     inkscape:showpageshadow="2"
     inkscape:pageopacity="0.0"
     inkscape:pagecheckerboard="0"
     inkscape:deskcolor="#d1d1d1"
     inkscape:document-units="px"
     showgrid="true"
     inkscape:zoom="9.89"
     inkscape:cx="66.481294"
     inkscape:cy="51.516684"
     inkscape:window-width="3440"
     inkscape:window-height="1387"
     inkscape:window-x="1192"
     inkscape:window-y="101"
     inkscape:window-maximized="1"
     inkscape:current-layer="layer1">
    <inkscape:grid
       id="grid1"
       units="px"
       originx="0"
       originy="0"
       spacingx="0.24512639"
       spacingy="0.24512639"
       empcolor="#0099e5"
       empopacity="0.30196078"
       color="#0099e5"
       opacity="0.14901961"
       empspacing="9"
       enabled="true"
       visible="true" />
  </sodipodi:namedview>
  <defs
     id="defs1">
    <marker
       style="overflow:visible"
       id="Triangle"
       refX="0"
       refY="0"
       orient="auto-start-reverse"
       inkscape:stockid="Triangle arrow"
       markerWidth="0.5"
       markerHeight="0.5"
       viewBox="0 0 1 1"
       inkscape:isstock="true"
       inkscape:collect="always"
       preserveAspectRatio="xMidYMid">
      <path
         transform="scale(0.5)"
         style="fill:context-stroke;fill-rule:evenodd;stroke:context-stroke;stroke-width:1pt"
         d="M 5.77,0 -2.88,5 V -5 Z"
         id="path135" />
    </marker>
    <inkscape:path-effect
       effect="fillet_chamfer"
       id="path-effect6"
       is_visible="true"
       lpeversion="1"
       nodesatellites_param="F,0,0,1,0,0,0,1 @ F,0,0,1,0,0,0,1 @ F,0,0,1,0,0,0,1"
       radius="0"
       unit="px"
       method="auto"
       mode="F"
       chamfer_steps="1"
       flexible="false"
       use_knot_distance="true"
       apply_no_radius="true"
       apply_with_radius="true"
       only_selected="false"
       hide_knots="false" />
    <inkscape:path-effect
       effect="bspline"
       id="path-effect5"
       is_visible="true"
       lpeversion="1.3"
       weight="33.333333"
       steps="2"
       helper_size="0"
       apply_no_weight="true"
       apply_with_weight="true"
       only_selected="false"
       uniform="false" />
    <inkscape:path-effect
       effect="bspline"
       id="path-effect4"
       is_visible="true"
       lpeversion="1.3"
       weight="33.333333"
       steps="2"
       helper_size="0"
       apply_no_weight="true"
       apply_with_weight="true"
       only_selected="false"
       uniform="false" />
  </defs>
  <g
     inkscape:label="Layer 1"
     inkscape:groupmode="layer"
     id="layer1">
    <ellipse
       style="fill:#000000;stroke-width:0.208593"
       id="path1"
       ry="1.2729492"
       rx="4.4115314"
       cy="15.442978"
       cx="6.6184125" />
    <path
       id="path2"
       style="fill:#000000;stroke-width:0.208593"
       d="m 2.207095,24.138994 c -0.00265,0.88173 1.9678591,1.597515 4.4026998,1.59928 2.4352206,0.0016 4.4135962,-0.711521 4.4199352,-1.593386 l -0.244169,-0.0041 c -0.0061,0.736696 -1.9436365,1.336694 -4.1671485,1.336835 -2.2283735,3e-5 -4.1674186,-0.598526 -4.1671485,-1.336835 -0.1326172,0 -1.604e-4,4.62e-4 0,0 z"
       sodipodi:nodetypes="cccccccc" />
    <path
       style="fill:#000000;stroke:#000000;stroke-width:0.213536;stroke-dasharray:none;stroke-opacity:1"
       d="M 2.3128134,24.138901 2.3120312,15.442963"
       id="path3" />
    <path
       style="fill:#000000;stroke:#000000;stroke-width:0.213536;stroke-dasharray:none;stroke-opacity:1"
       d="m 10.897017,24.138901 -7.82e-4,-8.695938"
       id="path3-8" />
    <path
       style="fill:none;fill-opacity:1;stroke:#000000;stroke-width:0.784404;stroke-dasharray:none;stroke-opacity:1;marker-end:url(#Triangle)"
       d="M 6.6184127,14.707584 C 6.9452479,13.808787 7.2720831,12.90999 7.3129375,12.256319 7.3537919,11.602649 7.1086655,11.194105 6.1690142,11.725212 5.2293628,12.25632 3.5951874,13.727078 2.7372449,13.522806 1.8793024,13.318534 1.7975936,11.439232 2.2061375,10.744707 2.6146815,10.050182 3.5134782,10.540435 4.412275,10.417872 5.3110718,10.295309 6.2098687,9.5599295 5.6379071,9.0696767 5.0659455,8.5794239 3.0232257,8.3342975 2.4512641,7.8848991 1.8793024,7.4355006 2.7780992,6.7818303 3.5951871,6.6184127 4.4122751,6.4549951 5.1476543,6.7818303 5.8421791,7.1495199 6.5367039,7.5172095 7.1903743,7.9257535 7.7623359,9.0288222 8.3342975,10.131891 8.8245502,11.929484 9.3154541,12.011192 9.8063581,12.092901 10.297912,10.458726 10.379621,8.9104313 10.46133,7.3621365 10.133193,5.8997235 9.642289,5.572888 9.1513849,5.2460526 8.4977151,6.0547955 7.6397727,6.0914777 6.7818303,6.1281599 5.7196159,5.3927807 4.8616735,5.1476543 4.0037311,4.9025279 3.3500608,5.1476543 2.9416407,4.9602761 2.5332206,4.7728979 2.3700508,4.1530152 2.4517596,3.3767816 2.5334684,2.600548 2.8600558,1.6679636 3.595311,1.9508477 4.3305663,2.2337319 5.4744892,3.7320843 6.0464508,3.904357 6.6184125,4.0766298 6.6184125,2.9228227 6.6184125,1.7690156"
       id="path4"
       inkscape:path-effect="#path-effect4"
       inkscape:original-d="M 6.6184127,14.707584 C 6.9452479,13.808787 7.2720831,12.90999 7.5989183,12.011193 7.3537919,11.602649 7.1086655,11.194105 6.8635391,10.785561 5.2293629,12.25632 3.5951873,13.727078 1.9610112,15.197837 1.8793024,13.318534 1.7975936,11.439232 1.7158848,9.5599295 2.6146816,10.050182 3.5134783,10.540435 4.4122751,11.030688 5.3110719,10.295309 6.2098687,9.5599295 7.1086655,8.8245503 5.0659455,8.5794239 3.0232257,8.3342975 0.98050559,8.0891711 1.8793024,7.4355006 2.7780992,6.7818303 3.6768959,6.1281599 4.4122751,6.4549951 5.1476543,6.7818303 5.8830335,7.1086655 6.5367039,7.5172095 7.1903743,7.9257535 7.8440447,8.3342975 8.3342974,10.131891 8.82455,11.929484 9.3148031,13.727078 9.806358,12.092901 10.297912,10.458726 10.789467,8.8245503 10.46133,7.3621365 10.133193,5.8997235 9.8050559,4.4373083 9.1513849,5.2460526 8.4977151,6.0547955 7.8440447,6.8635391 6.7818303,6.1281599 5.7196159,5.3927807 4.6574015,4.6574015 4.0037311,4.9025279 3.3500608,5.1476543 2.6963904,5.3927807 2.5332206,4.7728979 2.3700508,4.1530152 2.206881,3.5331324 2.5334684,2.600548 2.8600558,1.6679636 3.1866432,0.73537919 4.3305663,2.2337319 5.4744892,3.7320843 6.6184125,5.2304372 c 0,-1.1538074 0,-2.3076145 0,-3.4614216"
       sodipodi:nodetypes="ccccccccccccccccccccc" />
  </g>
</svg>
